<svg width="51" height="71" viewBox="0 0 71 71" fill="none" xmlns="http://www.w3.org/2000/svg">
<circle cx="35.7159" cy="35.0591" r="35" fill="#263621"/>
<path d="M40.7416 38.6082H27.973C27.7162 38.6082 27.47 38.5164 27.2885 38.3528C27.1069 38.1893 27.0049 37.9675 27.0049 37.7362V25.8592C27.0049 25.2955 26.7577 24.7548 26.3171 24.3546C25.8765 23.9544 25.2782 23.7273 24.6526 23.7227H22.1646C21.9079 23.7227 21.6617 23.6308 21.4801 23.4673C21.2986 23.3037 21.1966 23.0819 21.1966 22.8507C21.1966 22.6194 21.2986 22.3976 21.4801 22.234C21.6617 22.0705 21.9079 21.9786 22.1646 21.9786H24.6526C25.7917 21.9832 26.8825 22.3941 27.6861 23.1214C28.4898 23.8486 28.941 24.833 28.941 25.8592V36.8642H40.7416C41.3836 36.8634 42.0122 36.6992 42.5551 36.3907C43.098 36.0821 43.5332 35.6417 43.8104 35.1201L47.6826 28.0741H31.9807C31.724 28.0741 31.4778 27.9822 31.2962 27.8187C31.1147 27.6552 31.0127 27.4334 31.0127 27.2021C31.0127 26.9708 31.1147 26.749 31.2962 26.5855C31.4778 26.4219 31.724 26.3301 31.9807 26.3301H49.2702C49.4352 26.3305 49.5974 26.369 49.7412 26.4417C49.8851 26.5145 50.006 26.6192 50.0923 26.7459C50.1786 26.8726 50.2276 27.0171 50.2345 27.1656C50.2414 27.3141 50.206 27.4618 50.1318 27.5945L45.5335 35.9311C45.0922 36.736 44.4093 37.4135 43.5624 37.8867C42.7154 38.3598 41.7382 38.6098 40.7416 38.6082Z" fill="#FEFEFE"/>
<path d="M43.4623 42.0353H31.8456C31.2136 42.0422 30.5863 41.9362 30 41.7233C29.4137 41.5105 28.8801 41.1951 28.43 40.7953C27.9798 40.3955 27.6222 39.9193 27.3777 39.3942C27.1331 38.8691 27.0066 38.3056 27.0054 37.7362C27.0054 37.5049 27.1074 37.2831 27.2889 37.1196C27.4705 36.956 27.7167 36.8642 27.9734 36.8642C28.2302 36.8642 28.4764 36.956 28.6579 37.1196C28.8395 37.2831 28.9415 37.5049 28.9415 37.7362C28.9427 38.0766 29.0191 38.4134 29.1664 38.7269C29.3136 39.0403 29.5286 39.3243 29.799 39.5621C30.0693 39.8 30.3895 39.9869 30.7409 40.1121C31.0923 40.2373 31.4678 40.2982 31.8456 40.2912H43.4623C43.719 40.2912 43.9653 40.3831 44.1468 40.5466C44.3284 40.7102 44.4304 40.932 44.4304 41.1633C44.4304 41.3945 44.3284 41.6163 44.1468 41.7799C43.9653 41.9434 43.719 42.0353 43.4623 42.0353Z" fill="#FEFEFE"/>
<path d="M29.9095 48.1395C29.3351 48.1395 28.7737 47.9861 28.2961 47.6986C27.8185 47.4111 27.4462 47.0026 27.2264 46.5245C27.0066 46.0465 26.9491 45.5205 27.0612 45.013C27.1732 44.5056 27.4498 44.0394 27.856 43.6736C28.2621 43.3077 28.7796 43.0585 29.343 42.9576C29.9063 42.8566 30.4902 42.9085 31.0209 43.1065C31.5516 43.3045 32.0051 43.6398 32.3243 44.07C32.6434 44.5002 32.8137 45.006 32.8137 45.5234C32.8137 46.2172 32.5077 46.8826 31.9631 47.3733C31.4185 47.8639 30.6798 48.1395 29.9095 48.1395ZM29.9095 44.6514C29.7181 44.6514 29.5309 44.7025 29.3717 44.7983C29.2125 44.8942 29.0884 45.0304 29.0152 45.1897C28.9419 45.349 28.9227 45.5244 28.9601 45.6935C28.9974 45.8627 29.0896 46.0181 29.225 46.14C29.3604 46.262 29.5329 46.345 29.7207 46.3787C29.9085 46.4123 30.1031 46.3951 30.28 46.3291C30.4569 46.2631 30.6081 46.1513 30.7144 46.0079C30.8208 45.8645 30.8776 45.6959 30.8776 45.5234C30.8776 45.2921 30.7756 45.0703 30.5941 44.9068C30.4125 44.7433 30.1663 44.6514 29.9095 44.6514Z" fill="#FEFEFE"/>
<path d="M40.5582 48.1395C39.9838 48.1395 39.4223 47.9861 38.9447 47.6986C38.4671 47.4111 38.0949 47.0026 37.8751 46.5245C37.6553 46.0465 37.5977 45.5205 37.7098 45.013C37.8219 44.5056 38.0984 44.0394 38.5046 43.6736C38.9108 43.3077 39.4282 43.0585 39.9916 42.9576C40.5549 42.8566 41.1389 42.9085 41.6695 43.1065C42.2002 43.3045 42.6538 43.6398 42.9729 44.07C43.292 44.5002 43.4623 45.006 43.4623 45.5234C43.4623 46.2172 43.1563 46.8826 42.6117 47.3733C42.0671 47.8639 41.3284 48.1395 40.5582 48.1395ZM40.5582 44.6514C40.3667 44.6514 40.1795 44.7025 40.0203 44.7983C39.8611 44.8942 39.7371 45.0304 39.6638 45.1897C39.5905 45.349 39.5714 45.5244 39.6087 45.6935C39.6461 45.8627 39.7383 46.0181 39.8736 46.14C40.009 46.262 40.1815 46.345 40.3693 46.3787C40.5571 46.4123 40.7517 46.3951 40.9286 46.3291C41.1055 46.2631 41.2567 46.1513 41.3631 46.0079C41.4694 45.8645 41.5262 45.6959 41.5262 45.5234C41.5262 45.2921 41.4242 45.0703 41.2427 44.9068C41.0611 44.7433 40.8149 44.6514 40.5582 44.6514Z" fill="#FEFEFE"/>
</svg>
