<svg width="23" height="24" viewBox="0 0 23 24" fill="none" xmlns="http://www.w3.org/2000/svg">
<path d="M15.393 14.8121H5.53872C5.34058 14.8121 5.15055 14.7334 5.01044 14.5933C4.87034 14.4532 4.79162 14.2632 4.79162 14.065V3.88954C4.79164 3.40666 4.60085 2.94335 4.26081 2.60051C3.92077 2.25767 3.45903 2.06308 2.97617 2.05914H1.05612C0.857978 2.05914 0.66795 1.98043 0.527842 1.84032C0.387733 1.70021 0.309021 1.51019 0.309021 1.31204C0.309021 1.1139 0.387733 0.92387 0.527842 0.783762C0.66795 0.643653 0.857978 0.564941 1.05612 0.564941H2.97617C3.85532 0.568893 4.69711 0.920905 5.31736 1.54396C5.93762 2.16702 6.28583 3.01038 6.28582 3.88954V13.3179H15.393C15.8884 13.3173 16.3736 13.1766 16.7925 12.9123C17.2115 12.6479 17.5474 12.2706 17.7613 11.8237L20.7497 5.78717H8.63172C8.43358 5.78717 8.24355 5.70846 8.10344 5.56835C7.96333 5.42824 7.88462 5.23822 7.88462 5.04007C7.88462 4.84193 7.96333 4.6519 8.10344 4.51179C8.24355 4.37168 8.43358 4.29297 8.63172 4.29297H21.9749C22.1023 4.29336 22.2274 4.32629 22.3385 4.38865C22.4495 4.451 22.5428 4.54071 22.6094 4.64925C22.676 4.75779 22.7138 4.88156 22.7191 5.0088C22.7244 5.13604 22.6972 5.26254 22.6399 5.37627L19.0911 12.5185C18.7505 13.2082 18.2235 13.7886 17.5699 14.194C16.9163 14.5993 16.1621 14.8135 15.393 14.8121Z" fill="white"/>
<path d="M17.4924 17.7482H8.52719C8.03939 17.7542 7.55526 17.6633 7.10279 17.481C6.65032 17.2986 6.23849 17.0284 5.89112 16.6859C5.54374 16.3434 5.26772 15.9354 5.07901 15.4855C4.89029 15.0357 4.79264 14.5529 4.79169 14.065C4.79169 13.8669 4.8704 13.6769 5.01051 13.5368C5.15062 13.3966 5.34064 13.3179 5.53879 13.3179C5.73693 13.3179 5.92696 13.3966 6.06707 13.5368C6.20718 13.6769 6.28589 13.8669 6.28589 14.065C6.28682 14.3567 6.34581 14.6452 6.45943 14.9138C6.57305 15.1824 6.73902 15.4256 6.94765 15.6294C7.15628 15.8332 7.4034 15.9933 7.67459 16.1006C7.94579 16.2078 8.23562 16.26 8.52719 16.254H17.4924C17.6905 16.254 17.8806 16.3327 18.0207 16.4729C18.1608 16.613 18.2395 16.803 18.2395 17.0011C18.2395 17.1993 18.1608 17.3893 18.0207 17.5294C17.8806 17.6695 17.6905 17.7482 17.4924 17.7482Z" fill="white"/>
<path d="M7.03299 23.3365C6.5897 23.3365 6.15637 23.2051 5.78779 22.9588C5.41921 22.7125 5.13194 22.3625 4.9623 21.953C4.79266 21.5434 4.74827 21.0928 4.83475 20.658C4.92124 20.2232 5.1347 19.8239 5.44815 19.5104C5.7616 19.197 6.16096 18.9835 6.59573 18.897C7.0305 18.8105 7.48115 18.8549 7.8907 19.0246C8.30024 19.1942 8.65029 19.4815 8.89656 19.85C9.14284 20.2186 9.27429 20.652 9.27429 21.0952C9.27429 21.6897 9.03815 22.2598 8.61783 22.6801C8.1975 23.1004 7.62742 23.3365 7.03299 23.3365ZM7.03299 20.3481C6.88523 20.3481 6.74078 20.392 6.61792 20.4741C6.49506 20.5561 6.3993 20.6728 6.34276 20.8093C6.28621 20.9459 6.27142 21.0961 6.30024 21.241C6.32907 21.3859 6.40023 21.519 6.50471 21.6235C6.60919 21.728 6.74231 21.7992 6.88724 21.828C7.03216 21.8568 7.18238 21.842 7.31889 21.7855C7.45541 21.7289 7.57209 21.6332 7.65418 21.5103C7.73627 21.3875 7.78009 21.243 7.78009 21.0952C7.78009 20.8971 7.70138 20.7071 7.56127 20.567C7.42116 20.4269 7.23113 20.3481 7.03299 20.3481Z" fill="white"/>
<path d="M15.2513 23.3365C14.808 23.3365 14.3746 23.2051 14.0061 22.9588C13.6375 22.7125 13.3502 22.3625 13.1806 21.953C13.0109 21.5434 12.9665 21.0928 13.053 20.658C13.1395 20.2232 13.353 19.8239 13.6664 19.5104C13.9799 19.197 14.3792 18.9835 14.814 18.897C15.2488 18.8105 15.6994 18.8549 16.109 19.0246C16.5185 19.1942 16.8685 19.4815 17.1148 19.85C17.3611 20.2186 17.4926 20.652 17.4926 21.0952C17.4926 21.6897 17.2564 22.2598 16.8361 22.6801C16.4158 23.1004 15.8457 23.3365 15.2513 23.3365ZM15.2513 20.3481C15.1035 20.3481 14.959 20.392 14.8362 20.4741C14.7133 20.5561 14.6176 20.6728 14.561 20.8093C14.5045 20.9459 14.4897 21.0961 14.5185 21.241C14.5473 21.3859 14.6185 21.519 14.723 21.6235C14.8275 21.728 14.9606 21.7992 15.1055 21.828C15.2504 21.8568 15.4006 21.842 15.5372 21.7855C15.6737 21.7289 15.7904 21.6332 15.8724 21.5103C15.9545 21.3875 15.9984 21.243 15.9984 21.0952C15.9984 20.8971 15.9196 20.7071 15.7795 20.567C15.6394 20.4269 15.4494 20.3481 15.2513 20.3481Z" fill="white"/>
</svg>
