<svg width="620" height="235" viewBox="0 0 860 265" fill="none" xmlns="http://www.w3.org/2000/svg">
<path opacity="0.15" d="M1.32495 -64.9197V-65.9197H0.324951V-64.9197H1.32495ZM141.325 -64.9197H142.325V-65.9197H141.325V-64.9197ZM141.325 -16.5197V-15.5197H142.325V-16.5197H141.325ZM72.925 -16.5197V-17.5197H71.925V-16.5197H72.925ZM72.925 65.0803H71.925V66.0803H72.925V65.0803ZM132.525 65.0803H133.525V64.0803H132.525V65.0803ZM132.525 115.08V116.08H133.525V115.08H132.525ZM72.925 115.08V114.08H71.925V115.08H72.925ZM72.925 259.08V260.08H73.925V259.08H72.925ZM1.32495 259.08H0.324951V260.08H1.32495V259.08ZM1.32495 -63.9197H141.325V-65.9197H1.32495V-63.9197ZM140.325 -64.9197V-16.5197H142.325V-64.9197H140.325ZM141.325 -17.5197H72.925V-15.5197H141.325V-17.5197ZM71.925 -16.5197V65.0803H73.925V-16.5197H71.925ZM72.925 66.0803H132.525V64.0803H72.925V66.0803ZM131.525 65.0803V115.08H133.525V65.0803H131.525ZM132.525 114.08H72.925V116.08H132.525V114.08ZM71.925 115.08V259.08H73.925V115.08H71.925ZM72.925 258.08H1.32495V260.08H72.925V258.08ZM2.32495 259.08V-64.9197H0.324951V259.08H2.32495ZM200.762 237.08L199.991 237.716L199.995 237.722L200.762 237.08ZM200.762 -42.5197L201.525 -41.8727L201.53 -41.8784L200.762 -42.5197ZM350.762 -42.5197L349.995 -41.8783L350.001 -41.8717L350.762 -42.5197ZM350.762 237.08L349.996 236.438L349.995 236.439L350.762 237.08ZM295.562 203.08L296.464 203.513L296.467 203.506L296.47 203.499L295.562 203.08ZM295.562 -8.91968L294.661 -8.48695L295.562 -8.91968ZM256.362 -8.51968L257.264 -8.08696L257.267 -8.09377L257.27 -8.10063L256.362 -8.51968ZM255.962 203.08L255.042 203.47L255.044 203.477L255.047 203.483L255.962 203.08ZM275.562 262.88C240.775 262.88 216.194 253.984 201.53 236.439L199.995 237.722C215.198 255.91 240.484 264.88 275.562 264.88V262.88ZM201.534 236.445C186.806 218.561 179.362 192.16 179.362 157.08H177.362C177.362 192.401 184.852 219.333 199.991 237.716L201.534 236.445ZM179.362 157.08V36.6803H177.362V157.08H179.362ZM179.362 36.6803C179.362 1.59798 186.808 -24.5273 201.525 -41.8727L200 -43.1667C184.851 -25.3121 177.362 1.36264 177.362 36.6803H179.362ZM201.53 -41.8784C216.194 -59.4231 240.775 -68.3197 275.562 -68.3197V-70.3197C240.484 -70.3197 215.198 -61.3497 199.995 -43.161L201.53 -41.8784ZM275.562 -68.3197C310.62 -68.3197 335.332 -59.4215 349.995 -41.8784L351.53 -43.161C336.326 -61.3512 310.905 -70.3197 275.562 -70.3197V-68.3197ZM350.001 -41.8717C364.987 -24.2563 372.562 1.87193 372.562 36.6803H374.562C374.562 1.62202 366.938 -25.0498 351.524 -43.1677L350.001 -41.8717ZM372.562 36.6803V157.08H374.562V36.6803H372.562ZM372.562 157.08C372.562 192.156 364.987 218.554 349.996 236.438L351.529 237.723C366.938 219.34 374.562 192.404 374.562 157.08H372.562ZM349.995 236.439C335.332 253.982 310.62 262.88 275.562 262.88V264.88C310.905 264.88 336.326 255.912 351.53 237.722L349.995 236.439ZM275.562 214.08C285.914 214.08 293.036 210.655 296.464 203.513L294.661 202.648C291.689 208.839 285.477 212.08 275.562 212.08V214.08ZM296.47 203.499C299.755 196.383 301.362 186.888 301.362 175.08H299.362C299.362 186.739 297.77 195.911 294.654 202.661L296.47 203.499ZM301.362 175.08V19.0803H299.362V175.08H301.362ZM301.362 19.0803C301.362 7.01305 299.757 -2.49208 296.464 -9.35242L294.661 -8.48695C297.768 -2.01396 299.362 7.14757 299.362 19.0803H301.362ZM296.464 -9.35242C293.036 -16.4939 285.914 -19.9197 275.562 -19.9197V-17.9197C285.477 -17.9197 291.689 -14.6788 294.661 -8.48695L296.464 -9.35242ZM275.562 -19.9197C270.647 -19.9197 266.472 -19.0328 263.086 -17.199C259.687 -15.3576 257.14 -12.5911 255.454 -8.93875L257.27 -8.10063C258.785 -11.3816 261.038 -13.8151 264.039 -15.4404C267.053 -17.0733 270.878 -17.9197 275.562 -17.9197V-19.9197ZM255.461 -8.95242C252.169 -2.09438 250.562 7.27565 250.562 19.0803H252.562C252.562 7.41829 254.156 -1.61169 257.264 -8.08696L255.461 -8.95242ZM250.562 19.0803V175.08H252.562V19.0803H250.562ZM250.562 175.08C250.562 186.881 252.035 196.364 255.042 203.47L256.883 202.691C254.023 195.93 252.562 186.747 252.562 175.08H250.562ZM255.047 203.483C258.203 210.655 265.215 214.08 275.562 214.08V212.08C265.643 212.08 259.589 208.839 256.878 202.678L255.047 203.483ZM443.137 237.08L442.366 237.716L442.37 237.722L443.137 237.08ZM443.137 -42.5197L443.9 -41.8727L443.905 -41.8784L443.137 -42.5197ZM593.137 -42.5197L592.37 -41.8783L592.376 -41.8717L593.137 -42.5197ZM593.137 237.08L592.371 236.438L592.37 236.439L593.137 237.08ZM537.937 203.08L538.839 203.513L538.842 203.506L538.845 203.499L537.937 203.08ZM537.937 -8.91968L537.036 -8.48695L537.937 -8.91968ZM498.737 -8.51968L499.639 -8.08696L499.642 -8.09377L499.645 -8.10063L498.737 -8.51968ZM498.337 203.08L497.417 203.47L497.419 203.477L497.422 203.483L498.337 203.08ZM517.937 262.88C483.15 262.88 458.569 253.984 443.905 236.439L442.37 237.722C457.573 255.91 482.859 264.88 517.937 264.88V262.88ZM443.909 236.445C429.181 218.561 421.737 192.16 421.737 157.08H419.737C419.737 192.401 427.227 219.333 442.366 237.716L443.909 236.445ZM421.737 157.08V36.6803H419.737V157.08H421.737ZM421.737 36.6803C421.737 1.59798 429.183 -24.5273 443.9 -41.8727L442.375 -43.1667C427.226 -25.3121 419.737 1.36264 419.737 36.6803H421.737ZM443.905 -41.8784C458.569 -59.4231 483.15 -68.3197 517.937 -68.3197V-70.3197C482.859 -70.3197 457.573 -61.3497 442.37 -43.161L443.905 -41.8784ZM517.937 -68.3197C552.995 -68.3197 577.707 -59.4215 592.37 -41.8784L593.905 -43.161C578.701 -61.3512 553.28 -70.3197 517.937 -70.3197V-68.3197ZM592.376 -41.8717C607.362 -24.2563 614.937 1.87193 614.937 36.6803H616.937C616.937 1.62202 609.313 -25.0498 593.899 -43.1677L592.376 -41.8717ZM614.937 36.6803V157.08H616.937V36.6803H614.937ZM614.937 157.08C614.937 192.156 607.362 218.554 592.371 236.438L593.904 237.723C609.313 219.34 616.937 192.404 616.937 157.08H614.937ZM592.37 236.439C577.707 253.982 552.995 262.88 517.937 262.88V264.88C553.28 264.88 578.701 255.912 593.905 237.722L592.37 236.439ZM517.937 214.08C528.289 214.08 535.411 210.655 538.839 203.513L537.036 202.648C534.064 208.839 527.852 212.08 517.937 212.08V214.08ZM538.845 203.499C542.13 196.383 543.737 186.888 543.737 175.08H541.737C541.737 186.739 540.145 195.911 537.029 202.661L538.845 203.499ZM543.737 175.08V19.0803H541.737V175.08H543.737ZM543.737 19.0803C543.737 7.01305 542.132 -2.49208 538.839 -9.35242L537.036 -8.48695C540.143 -2.01396 541.737 7.14757 541.737 19.0803H543.737ZM538.839 -9.35242C535.411 -16.4939 528.289 -19.9197 517.937 -19.9197V-17.9197C527.852 -17.9197 534.064 -14.6788 537.036 -8.48695L538.839 -9.35242ZM517.937 -19.9197C513.022 -19.9197 508.847 -19.0328 505.461 -17.199C502.062 -15.3576 499.515 -12.5911 497.83 -8.93875L499.645 -8.10063C501.16 -11.3816 503.413 -13.8151 506.414 -15.4404C509.428 -17.0733 513.253 -17.9197 517.937 -17.9197V-19.9197ZM497.836 -8.95242C494.544 -2.09438 492.937 7.27565 492.937 19.0803H494.937C494.937 7.41829 496.531 -1.61169 499.639 -8.08696L497.836 -8.95242ZM492.937 19.0803V175.08H494.937V19.0803H492.937ZM492.937 175.08C492.937 186.881 494.41 196.364 497.417 203.47L499.258 202.691C496.398 195.93 494.937 186.747 494.937 175.08H492.937ZM497.422 203.483C500.578 210.655 507.59 214.08 517.937 214.08V212.08C508.018 212.08 501.964 208.839 499.253 202.678L497.422 203.483ZM667.512 -64.9197V-65.9197H666.512V-64.9197H667.512ZM848.312 -21.7197L847.393 -21.3258L847.398 -21.3158L847.402 -21.3059L848.312 -21.7197ZM848.312 215.08L847.399 214.673L847.396 214.68L847.393 214.686L848.312 215.08ZM815.112 248.28L814.696 247.371L814.69 247.374L815.112 248.28ZM667.512 259.08H666.512V260.08H667.512V259.08ZM773.112 205.08L773.634 205.934L773.64 205.93L773.646 205.926L773.112 205.08ZM782.712 191.88L783.685 192.112L783.688 192.102L782.712 191.88ZM782.312 1.4803L781.34 1.71191L781.346 1.74001L781.355 1.76765L782.312 1.4803ZM772.712 -10.9197L772.227 -10.0455L772.237 -10.04L772.247 -10.0348L772.712 -10.9197ZM739.112 -14.9197V-15.9197H738.112V-14.9197H739.112ZM739.112 209.48H738.112V210.48H739.112V209.48ZM667.512 -63.9197H749.512V-65.9197H667.512V-63.9197ZM749.512 -63.9197C777.45 -63.9197 799.158 -60.4576 814.709 -53.6046L815.516 -55.4348C799.6 -62.4484 777.575 -65.9197 749.512 -65.9197V-63.9197ZM814.709 -53.6046C830.226 -46.7669 841.099 -36.0118 847.393 -21.3258L849.232 -22.1136C842.726 -37.2942 831.466 -48.4059 815.516 -55.4348L814.709 -53.6046ZM847.402 -21.3059C853.987 -6.82019 857.312 12.7537 857.312 37.4803H859.312C859.312 12.6069 855.972 -7.28584 849.223 -22.1335L847.402 -21.3059ZM857.312 37.4803V155.08H859.312V37.4803H857.312ZM857.312 155.08C857.312 180.074 853.986 199.917 847.399 214.673L849.226 215.488C855.972 200.376 859.312 180.22 859.312 155.08H857.312ZM847.393 214.686C841.098 229.376 830.22 240.267 814.696 247.371L815.529 249.19C831.472 241.894 842.727 230.652 849.232 215.474L847.393 214.686ZM814.69 247.374C799.413 254.485 777.98 258.08 750.312 258.08V260.08C778.111 260.08 799.878 256.475 815.534 249.187L814.69 247.374ZM750.312 258.08H667.512V260.08H750.312V258.08ZM668.512 259.08V-64.9197H666.512V259.08H668.512ZM750.312 210.48C760.764 210.48 768.593 209.014 773.634 205.934L772.591 204.227C768.032 207.013 760.661 208.48 750.312 208.48V210.48ZM773.646 205.926C778.924 202.593 782.289 197.977 783.685 192.112L781.74 191.649C780.47 196.983 777.434 201.168 772.578 204.235L773.646 205.926ZM783.688 192.102C785.046 186.125 785.712 177.503 785.712 166.28H783.712C783.712 177.458 783.046 185.902 781.737 191.659L783.688 192.102ZM785.712 166.28V25.0803H783.712V166.28H785.712ZM785.712 25.0803C785.712 14.6518 784.913 6.66812 783.27 1.19295L781.355 1.76765C782.912 6.95917 783.712 14.7088 783.712 25.0803H785.712ZM783.285 1.24869C781.885 -4.63029 778.502 -9.0027 773.178 -11.8046L772.247 -10.0348C777.056 -7.50334 780.073 -3.60909 781.34 1.71191L783.285 1.24869ZM773.198 -11.7938C768.168 -14.5882 760.356 -15.9197 749.912 -15.9197V-13.9197C760.269 -13.9197 767.657 -12.5845 772.227 -10.0455L773.198 -11.7938ZM749.912 -15.9197H739.112V-13.9197H749.912V-15.9197ZM738.112 -14.9197V209.48H740.112V-14.9197H738.112ZM739.112 210.48H750.312V208.48H739.112V210.48Z" fill="url(#paint0_linear)"/>
<defs>
<linearGradient id="paint0_linear" x1="857.928" y1="101.741" x2="-174.183" y2="101.741" gradientUnits="userSpaceOnUse">
<stop stop-color="#414141"/>
<stop offset="1" stop-color="#414141" stop-opacity="0"/>
</linearGradient>
</defs>
</svg>
